<svg width="181" height="56" viewBox="0 0 181 56" fill="none" xmlns="http://www.w3.org/2000/svg">
<rect x="0.5" y="0.5" width="180" height="55" rx="27.5" fill="white"/>
<rect x="0.5" y="0.5" width="180" height="55" rx="27.5" stroke="#EEEEEE"/>
<path d="M43.9688 18C38.4487 18 33.9688 22.48 33.9688 28C33.9688 33.52 38.4487 38 43.9688 38C49.4888 38 53.9688 33.52 53.9688 28C53.9688 22.48 49.4988 18 43.9688 18ZM46.9688 30.23L44.0687 31.9C43.7087 32.11 43.3088 32.21 42.9187 32.21C42.5188 32.21 42.1287 32.11 41.7688 31.9C41.0487 31.48 40.6187 30.74 40.6187 29.9V26.55C40.6187 25.72 41.0487 24.97 41.7688 24.55C42.4888 24.13 43.3487 24.13 44.0787 24.55L46.9787 26.22C47.6987 26.64 48.1287 27.38 48.1287 28.22C48.1287 29.06 47.6987 29.81 46.9688 30.23Z" fill="#5D50C6"/>
<path d="M74.444 30.434L72.232 23.574H70.23L68.032 30.406L66.212 23.574H64.168L66.926 33.5H68.942L71.21 26.43L73.478 33.5H75.466L78.21 23.574H76.236L74.444 30.434ZM78.533 31.624C78.533 32.702 79.429 33.696 80.899 33.696C81.921 33.696 82.579 33.22 82.929 32.674C82.929 32.94 82.957 33.318 82.999 33.5H84.707C84.665 33.262 84.623 32.772 84.623 32.408V29.02C84.623 27.634 83.811 26.402 81.627 26.402C79.779 26.402 78.785 27.592 78.673 28.67L80.325 29.02C80.381 28.418 80.829 27.9 81.641 27.9C82.425 27.9 82.803 28.306 82.803 28.796C82.803 29.034 82.677 29.23 82.285 29.286L80.591 29.538C79.443 29.706 78.533 30.392 78.533 31.624ZM81.291 32.31C80.689 32.31 80.395 31.918 80.395 31.512C80.395 30.98 80.773 30.714 81.249 30.644L82.803 30.406V30.714C82.803 31.932 82.075 32.31 81.291 32.31ZM88.7548 24.554H87.0748V25.52C87.0748 26.136 86.7388 26.612 86.0108 26.612H85.6608V28.264H86.9068V31.47C86.9068 32.8 87.7468 33.598 89.0908 33.598C89.6368 33.598 89.9728 33.5 90.1408 33.43V31.89C90.0428 31.918 89.7908 31.946 89.5668 31.946C89.0348 31.946 88.7548 31.75 88.7548 31.148V28.264H90.1408V26.612H88.7548V24.554ZM94.7482 28.124C95.6722 28.124 96.1062 28.712 96.2742 29.286L97.9402 28.726C97.6462 27.564 96.5822 26.402 94.7062 26.402C92.7042 26.402 91.1362 27.928 91.1362 30.056C91.1362 32.17 92.7322 33.71 94.7622 33.71C96.5962 33.71 97.6742 32.534 97.9822 31.386L96.3442 30.84C96.1902 31.372 95.7142 32.002 94.7622 32.002C93.8102 32.002 92.9982 31.302 92.9982 30.056C92.9982 28.81 93.7962 28.124 94.7482 28.124ZM101.213 29.454C101.255 28.698 101.717 28.11 102.501 28.11C103.397 28.11 103.775 28.712 103.775 29.482V33.5H105.637V29.16C105.637 27.648 104.825 26.43 103.075 26.43C102.417 26.43 101.661 26.654 101.213 27.186V23.364H99.3514V33.5H101.213V29.454ZM113.058 31.708V25.366H114.612C116.236 25.366 117.58 26.388 117.58 28.544C117.58 30.7 116.222 31.708 114.598 31.708H113.058ZM114.668 33.5C117.496 33.5 119.582 31.68 119.582 28.544C119.582 25.408 117.51 23.574 114.682 23.574H111.126V33.5H114.668ZM122.516 29.272C122.558 28.642 123.09 27.914 124.056 27.914C125.12 27.914 125.568 28.586 125.596 29.272H122.516ZM125.778 31.064C125.554 31.68 125.078 32.114 124.21 32.114C123.286 32.114 122.516 31.456 122.474 30.546H127.402C127.402 30.518 127.43 30.238 127.43 29.972C127.43 27.76 126.156 26.402 124.028 26.402C122.264 26.402 120.64 27.83 120.64 30.028C120.64 32.352 122.306 33.71 124.196 33.71C125.89 33.71 126.982 32.716 127.332 31.526L125.778 31.064ZM130.758 33.5V29.468C130.758 28.712 131.234 28.11 132.046 28.11C132.886 28.11 133.264 28.67 133.264 29.412V33.5H135.112V29.468C135.112 28.726 135.588 28.11 136.386 28.11C137.24 28.11 137.604 28.67 137.604 29.412V33.5H139.41V29.034C139.41 27.186 138.192 26.416 136.918 26.416C136.008 26.416 135.28 26.724 134.734 27.564C134.384 26.822 133.628 26.416 132.69 26.416C131.934 26.416 131.052 26.78 130.674 27.452V26.612H128.896V33.5H130.758ZM144.391 32.016C143.481 32.016 142.641 31.344 142.641 30.056C142.641 28.754 143.481 28.096 144.391 28.096C145.301 28.096 146.141 28.754 146.141 30.056C146.141 31.358 145.301 32.016 144.391 32.016ZM144.391 26.402C142.333 26.402 140.779 27.928 140.779 30.056C140.779 32.17 142.333 33.71 144.391 33.71C146.449 33.71 148.003 32.17 148.003 30.056C148.003 27.928 146.449 26.402 144.391 26.402Z" fill="#222831"/>
</svg>
